<?xml version="1.0" encoding="UTF-8"?>
<svg id="Layer_2" data-name="Layer 2" xmlns="http://www.w3.org/2000/svg" viewBox="0 0 69.75 76.38">
  <defs>
    <style>
      .cls-1 {
        fill: #250bf1;
      }

      .cls-2 {
        fill: #2128b9;
      }

      .cls-3 {
        fill: #1204ce;
      }

      .cls-4 {
        fill: #0c1486;
      }

      .cls-5 {
        fill: none;
        stroke: #000;
        stroke-miterlimit: 10;
        stroke-width: .25px;
      }

      .cls-6 {
        fill: #f2f2f2;
      }

      .cls-7 {
        fill: #232ac3;
      }

      .cls-8 {
        fill: #3315ff;
      }

      .cls-9 {
        fill: #fbfbfb;
      }

      .cls-10 {
        fill: #171fa2;
      }

      .cls-11 {
        fill: #aab0c4;
      }
    </style>
  </defs>
  <g id="Layer_1-2" data-name="Layer 1">
    <polygon class="cls-2" points="11.62 22.3 11.62 36.65 0 31.15 0 16.79 11.62 22.3"/>
    <polygon class="cls-2" points="11.62 36.65 11.62 51.01 0 45.51 0 31.15 11.62 36.65"/>
    <polygon class="cls-2" points="11.62 51.01 11.62 65.37 0 59.87 0 45.51 11.62 51.01"/>
    <polygon class="cls-7" points="34.87 62.02 34.87 76.38 23.25 70.88 23.25 56.52 34.87 62.02"/>
    <polygon class="cls-9" points="23.25 56.52 23.25 70.88 11.62 65.37 11.62 51.01 23.25 56.52"/>
    <polygon class="cls-9" points="23.25 27.8 23.25 42.16 11.62 36.65 11.62 22.3 11.63 22.3 23.25 27.8"/>
    <polygon class="cls-9" points="34.87 47.66 34.87 62.02 23.25 56.52 23.25 42.16 34.87 47.66"/>
    <polygon class="cls-9" points="23.25 42.16 23.25 56.52 11.62 51.01 11.62 36.65 23.25 42.16"/>
    <line class="cls-5" x1="11.62" y1="65.38" x2="11.62" y2="65.37"/>
    <polygon class="cls-4" points="69.75 31.15 69.75 45.51 58.12 51.01 58.12 36.65 69.75 31.15"/>
    <polygon class="cls-4" points="69.75 45.51 69.75 59.87 58.12 65.37 58.12 51.01 69.75 45.51"/>
    <polygon class="cls-4" points="58.12 51.01 58.12 65.38 46.5 70.88 46.5 56.52 58.12 51.01"/>
    <polygon class="cls-4" points="46.5 56.52 46.5 70.88 34.87 76.38 34.87 62.02 46.5 56.52"/>
    <polygon class="cls-11" points="46.5 42.16 46.5 56.52 34.87 62.02 34.87 47.66 46.5 42.16"/>
    <polygon class="cls-11" points="58.12 36.65 58.12 51.01 46.5 56.52 46.5 42.16 58.12 36.65"/>
    <polygon class="cls-4" points="69.75 16.79 69.75 31.15 58.12 36.65 58.12 22.3 58.14 22.28 58.15 22.28 69.75 16.79"/>
    <polygon class="cls-3" points="23.27 42.18 23.27 27.82 34.9 22.32 34.9 36.68 23.27 42.18"/>
    <polygon class="cls-11" points="58.12 22.3 58.12 36.65 46.5 42.16 46.5 27.8 46.52 27.78 46.53 27.78 58.12 22.3"/>
    <line class="cls-5" x1="58.62" y1="11.29" x2="58.59" y2="11.3"/>
    <line class="cls-5" x1="46.73" y1="5.61" x2="46.69" y2="5.63"/>
    <line class="cls-5" x1="46.6" y1="27.82" x2="46.53" y2="27.78"/>
    <polygon class="cls-8" points="34.9 36.68 34.9 22.32 46.52 27.82 46.52 42.18 34.9 36.68"/>
    <polygon class="cls-1" points="23.25 42.2 23.27 42.18 34.9 36.68 46.52 42.18 34.78 47.66 23.25 42.2"/>
    <polygon class="cls-6" points="58.14 22.28 58.12 22.3 46.53 27.78 46.52 27.78 34.99 22.32 46.69 16.86 58.14 22.28"/>
    <polygon class="cls-6" points="34.99 22.32 23.25 27.8 11.63 22.3 23.26 16.76 34.99 22.32"/>
    <polygon class="cls-10" points="23.26 16.76 11.63 22.3 11.62 22.3 0 16.79 11.58 11.23 23.26 16.76"/>
    <polygon class="cls-10" points="46.69 5.63 34.86 11.25 23.11 5.67 34.87 0 46.69 5.63"/>
    <polygon class="cls-10" points="34.86 11.25 23.26 16.76 11.58 11.23 23.1 5.67 23.11 5.67 34.86 11.25"/>
    <polygon class="cls-6" points="46.69 16.86 34.99 22.32 23.26 16.76 34.86 11.25 46.69 16.86"/>
    <polygon class="cls-10" points="58.59 11.3 46.69 16.86 34.86 11.25 46.69 5.63 58.59 11.3"/>
    <polygon class="cls-10" points="69.75 16.79 58.15 22.28 58.14 22.28 46.69 16.86 58.59 11.3 69.75 16.79"/>
  </g>
</svg>